{"title":"Vampire Academy (2014) BRrip 720p x264 Dual Audio [Eng DD 5.1-Hi","uid":11346691,"size":1024205955,"categoryP":"video","categoryS":"hd___movies","magnet":"?xt=urn:btih:cda3ec091ce5f966f076225903ce22be35fdafbd&amp;dn=Vampire+Academy+%282014%29+BRrip+720p+x264+Dual+Audio+%5BEng+DD+5.1-Hi&amp;tr=udp%3A%2F%2Ftracker.openbittorrent.com%3A80&amp;tr=udp%3A%2F%2Fopen.demonii.com%3A1337&amp;tr=udp%3A%2F%2Ftracker.coppersurfer.tk%3A6969&amp;tr=udp%3A%2F%2Fexodus.desync.com%3A6969","seeders":0,"leechers":2,"uploader":"Xdesiars","files":5,"time":1414865817,"description":"Format                                   : Matroska\nFormat version                           : Version 2\nFile size                                : 968 MiB\nDuration                                 : 1h 44mn\nOverall bit rate                         : 1 296 Kbps\nMovie name                               : Vampire Academy (2014) by XdesiArsenal [ExD-XMR]\nEncoded date                             : UTC 2014-11-01 03:34:39\nWriting application                      : mkvmerge v5.0.1 ('Es ist Sommer') built on Nov 23 2011 20:48:57\nWriting library                          : libebml v1.2.2 + libmatroska v1.3.0\n\nVideo\nID                                       : 1\nFormat                                   : AVC\nFormat/Info                              : Advanced Video Codec\nFormat profile                           : &lt;a class=&quot;__cf_email__&quot; href=&quot;/cdn-cgi/l/email-protection&quot; data-cfemail=&quot;eda5848a85ada1dec3dc&quot;&gt;[email&amp;#160;protected]&lt;/a&gt;&lt;script cf-hash='f9e31' type=&quot;text/javascript&quot;&gt;\n/* &lt;![CDATA[ */!function(){try{var t=&quot;currentScript&quot;in document?document.currentScript:function(){for(var t=document.getElementsByTagName(&quot;script&quot;),e=t.length;e--;)if(t[e].getAttribute(&quot;cf-hash&quot;))return t[e]}();if(t&amp;&amp;t.previousSibling){var e,r,n,i,c=t.previousSibling,a=c.getAttribute(&quot;data-cfemail&quot;);if(a){for(e=&quot;&quot;,r=parseInt(a.substr(0,2),16),n=2;a.length-n;n+=2)i=parseInt(a.substr(n,2),16)^r,e+=String.fromCharCode(i);e=document.createTextNode(e),c.parentNode.replaceChild(e,c)}}}catch(u){}}();/* ]]&gt; */&lt;/script&gt;\nFormat settings, CABAC                   : Yes\nFormat settings, ReFrames                : 4 frames\nMuxing mode                              : Header stripping\nCodec ID                                 : V_MPEG4/ISO/AVC\nDuration                                 : 1h 44mn\nBit rate                                 : 887 Kbps\nWidth                                    : 1 280 pixels\nHeight                                   : 720 pixels\nDisplay aspect ratio                     : 2.40:1\nFrame rate mode                          : Constant\nFrame rate                               : 23.976 fps\nColor space                              : YUV\nChroma subsampling                       : 4:2:0\nBit depth                                : 8 bits\nScan type                                : Progressive\nBits/(Pixel*Frame)                       : 0.040\nStream size                              : 662 MiB (68%)\nTitle                                    : Vampire Academy (2014) by XdesiArsenal [ExD-XMR]\nWriting library                          : x264 core 112\nLanguage                                 : English\nDefault                                  : Yes\nForced                                   : No\nColor primaries                          : BT.709\nTransfer characteristics                 : BT.709\nMatrix coefficients                      : BT.709\n\nAudio #1\nID                                       : 2\nFormat                                   : AC-3\nFormat/Info                              : Audio Coding 3\nMode extension                           : CM (complete main)\nFormat settings, Endianness              : Big\nMuxing mode                              : Header stripping\nCodec ID                                 : A_AC3\nDuration                                 : 1h 44mn\nBit rate mode                            : Constant\nBit rate                                 : 192 Kbps\nChannel(s)                               : 6 channels\nChannel positions                        : Front: L C R, Side: L R, LFE\nSampling rate                            : 48.0 KHz\nBit depth                                : 16 bits\nCompression mode                         : Lossy\nStream size                              : 143 MiB (15%)\nTitle                                    : XdesiArsenal\nLanguage                                 : English\nDefault                                  : Yes\nForced                                   : No\n\nAudio #2\nID                                       : 3\nFormat                                   : AC-3\nFormat/Info                              : Audio Coding 3\nMode extension                           : CM (complete main)\nFormat settings, Endianness              : Big\nMuxing mode                              : Header stripping\nCodec ID                                 : A_AC3\nDuration                                 : 1h 44mn\nBit rate mode                            : Constant\nBit rate                                 : 192 Kbps\nChannel(s)                               : 6 channels\nChannel positions                        : Front: L C R, Side: L R, LFE\nSampling rate                            : 48.0 KHz\nBit depth                                : 16 bits\nCompression mode                         : Lossy\nDelay relative to video                  : 5s 0ms\nStream size                              : 143 MiB (15%)\nTitle                                    : XdesiArsenal\nLanguage                                 : Hindi\nDefault                                  : No\nForced                                   : No\n\nMenu\n00:00:00.000                             : en:Chapter 1\n00:06:11.955                             : en:Chapter 2\n00:13:48.661                             : en:Chapter 3\n00:19:34.590                             : en:Chapter 4\n00:26:25.834                             : en:Chapter 5\n00:33:07.652                             : en:Chapter 6\n00:39:47.760                             : en:Chapter 7\n00:46:29.120                             : en:Chapter 8\n00:51:45.853                             : en:Chapter 9\n00:56:13.579                             : en:Chapter 10\n01:01:42.490                             : en:Chapter 11\n01:07:31.005                             : en:Chapter 12\n01:13:32.617                             : en:Chapter 13\n01:21:50.155                             : en:Chapter 14\n01:30:11.781                             : en:Chapter 15\n01:36:05.718                             : en:Chapter 16","torrent":{"xt":"urn:btih:cda3ec091ce5f966f076225903ce22be35fdafbd","amp;dn":"Vampire+Academy+%282014%29+BRrip+720p+x264+Dual+Audio+%5BEng+DD+5.1-Hi","amp;tr":["udp%3A%2F%2Ftracker.openbittorrent.com%3A80","udp%3A%2F%2Fopen.demonii.com%3A1337","udp%3A%2F%2Ftracker.coppersurfer.tk%3A6969","udp%3A%2F%2Fexodus.desync.com%3A6969"],"infoHash":"cda3ec091ce5f966f076225903ce22be35fdafbd","infoHashBuffer":{"type":"Buffer","data":[205,163,236,9,28,229,249,102,240,118,34,89,3,206,34,190,53,253,175,189]},"announce":[],"urlList":[]}}